<?xml version="1.0" standalone="no"?>
<!DOCTYPE svg PUBLIC "-//W3C//DTD SVG 20010904//EN"
 "http://www.w3.org/TR/2001/REC-SVG-20010904/DTD/svg10.dtd">
<svg version="1.0" xmlns="http://www.w3.org/2000/svg"
 width="512.000000pt" height="512.000000pt" viewBox="0 0 512.000000 512.000000"
 preserveAspectRatio="xMidYMid meet">
<metadata>
Created by potrace 1.11, written by Peter Selinger 2001-2013
</metadata>
<g transform="translate(0.000000,512.000000) scale(0.100000,-0.100000)"
fill="#000000" stroke="none">
<path d="M1963 5105 c-98 -42 -95 -200 4 -242 92 -38 185 24 185 122 0 101
-95 161 -189 120z"/>
<path d="M3033 5100 c-18 -10 -39 -30 -48 -44 -21 -32 -21 -110 -1 -141 74
-112 246 -63 246 70 0 103 -111 168 -197 115z"/>
<path d="M878 4436 c-168 -46 -253 -234 -174 -385 43 -81 145 -141 241 -141
145 1 252 103 263 251 4 56 1 75 -20 120 -57 126 -186 190 -310 155z"/>
<path d="M1970 4441 c-182 -39 -271 -238 -180 -398 52 -91 147 -139 256 -130
186 15 300 218 216 383 -24 47 -91 110 -136 129 -42 18 -114 25 -156 16z"/>
<path d="M3028 4436 c-49 -13 -63 -21 -116 -70 -98 -90 -108 -254 -21 -359 92
-112 263 -129 378 -38 47 38 88 112 96 177 25 182 -158 340 -337 290z"/>
<path d="M4108 4436 c-44 -12 -107 -52 -136 -86 -35 -41 -62 -116 -62 -175 1
-238 290 -354 459 -184 126 127 88 346 -72 423 -66 31 -129 39 -189 22z"/>
<path d="M1903 3486 c-104 -34 -204 -123 -251 -224 -24 -50 -27 -69 -27 -162
0 -97 2 -110 31 -170 119 -252 454 -311 650 -116 120 120 150 302 76 459 -39
85 -105 150 -190 190 -57 27 -80 32 -157 34 -57 2 -106 -2 -132 -11z"/>
<path d="M2985 3487 c-241 -80 -355 -339 -248 -565 142 -301 583 -296 727 8
29 60 31 73 31 170 0 99 -2 110 -32 171 -40 81 -121 160 -200 197 -47 21 -76
27 -148 29 -56 2 -105 -2 -130 -10z"/>
<path d="M860 3355 c-106 -34 -183 -141 -183 -255 0 -77 17 -122 69 -180 123
-136 337 -113 430 46 53 89 42 218 -25 303 -63 80 -192 118 -291 86z"/>
<path d="M4113 3360 c-49 -11 -117 -55 -147 -95 -113 -147 -47 -363 128 -421
99 -33 208 -3 280 76 52 58 69 103 69 180 0 173 -161 300 -330 260z"/>
<path d="M62 3210 c-36 -22 -62 -72 -62 -117 0 -35 31 -87 64 -108 32 -21 110
-21 141 -1 112 74 63 246 -70 246 -23 0 -54 -9 -73 -20z"/>
<path d="M4909 3207 c-65 -44 -75 -137 -21 -198 50 -55 144 -55 194 0 78 87
19 221 -97 221 -27 0 -54 -8 -76 -23z"/>
<path d="M1964 2418 c-127 -14 -250 -104 -307 -226 -30 -62 -32 -75 -32 -172
0 -93 3 -111 27 -163 38 -80 117 -160 197 -200 61 -30 72 -32 171 -32 97 0
110 2 172 32 250 118 309 454 114 649 -89 88 -208 128 -342 112z"/>
<path d="M3038 2418 c-168 -21 -314 -167 -336 -335 -24 -184 64 -349 228 -427
60 -29 73 -31 170 -31 93 0 111 3 163 27 80 38 160 117 200 197 30 61 32 72
32 171 0 97 -2 110 -31 170 -77 163 -243 252 -426 228z"/>
<path d="M870 2281 c-73 -23 -147 -89 -178 -160 -25 -58 -20 -156 11 -217 110
-218 421 -193 497 40 19 58 8 156 -24 210 -62 105 -195 161 -306 127z"/>
<path d="M4085 2275 c-133 -49 -207 -205 -162 -339 62 -181 287 -242 429 -117
82 73 116 208 76 302 -22 51 -84 116 -132 141 -53 27 -156 33 -211 13z"/>
<path d="M102 2149 c-55 -11 -102 -69 -102 -124 0 -107 122 -172 211 -112 120
81 35 267 -109 236z"/>
<path d="M4950 2149 c-72 -15 -116 -104 -88 -177 39 -104 201 -109 244 -7 45
108 -40 208 -156 184z"/>
<path d="M835 1186 c-101 -47 -158 -135 -158 -241 0 -107 54 -194 150 -241
178 -88 383 42 383 241 0 193 -202 322 -375 241z"/>
<path d="M1935 1198 c-178 -67 -239 -286 -119 -426 53 -62 123 -95 204 -95 77
0 123 18 180 69 136 123 113 337 -47 431 -35 20 -61 27 -117 29 -39 2 -84 -1
-101 -8z"/>
<path d="M3007 1196 c-113 -41 -185 -155 -174 -276 6 -71 34 -126 87 -174 56
-51 103 -69 175 -69 208 0 337 214 237 396 -61 112 -203 166 -325 123z"/>
<path d="M4070 1189 c-212 -96 -213 -388 -1 -491 95 -46 239 -15 307 65 93
110 90 268 -7 366 -77 78 -204 103 -299 60z"/>
<path d="M1963 256 c-67 -31 -94 -127 -53 -194 22 -36 72 -62 117 -62 35 0 87
31 108 64 21 32 21 110 1 141 -36 55 -114 78 -173 51z"/>
<path d="M3041 252 c-51 -25 -73 -61 -73 -116 0 -54 19 -89 65 -116 86 -53
197 12 197 115 0 52 -31 102 -75 121 -45 18 -73 18 -114 -4z"/>
</g>
</svg>
